<svg width="1876.6000000000001" height="1056.0" xmlns="http://www.w3.org/2000/svg" xmlns:xlink="http://www.w3.org/1999/xlink"><line x1="301.25" y1="7.5" x2="277.0" y2="32.0" style="stroke:black; stroke-width:1px;" />
<line x1="277.0" y1="39.5" x2="111.5" y2="64.0" style="stroke:black; stroke-width:1px;" />
<line x1="111.5" y1="71.5" x2="111.5" y2="96.0" style="stroke:black; stroke-width:1px;" />
<line x1="111.5" y1="103.5" x2="111.5" y2="128.0" style="stroke:black; stroke-width:1px;" />
<line x1="111.5" y1="135.5" x2="18.0" y2="160.0" style="stroke:black; stroke-width:1px;" />
<line x1="111.5" y1="135.5" x2="50.0" y2="160.0" style="stroke:black; stroke-width:1px;" />
<line x1="50.0" y1="167.5" x2="50.0" y2="192.0" style="stroke:black; stroke-width:1px;" />
<line x1="111.5" y1="135.5" x2="91.875" y2="160.0" style="stroke:black; stroke-width:1px;" />
<line x1="111.5" y1="135.5" x2="122.75" y2="160.0" style="stroke:black; stroke-width:1px;" />
<line x1="111.5" y1="135.5" x2="153.125" y2="160.0" style="stroke:black; stroke-width:1px;" />
<line x1="111.5" y1="135.5" x2="205.0" y2="160.0" style="stroke:black; stroke-width:1px;" />
<line x1="205.0" y1="167.5" x2="71.0" y2="192.0" style="stroke:black; stroke-width:1px;" />
<line x1="205.0" y1="167.5" x2="82.0" y2="192.0" style="stroke:black; stroke-width:1px;" />
<line x1="205.0" y1="167.5" x2="114.0" y2="192.0" style="stroke:black; stroke-width:1px;" />
<line x1="114.0" y1="199.5" x2="44.0" y2="224.0" style="stroke:black; stroke-width:1px;" />
<line x1="44.0" y1="231.5" x2="44.0" y2="256.0" style="stroke:black; stroke-width:1px;" />
<line x1="44.0" y1="263.5" x2="44.0" y2="288.0" style="stroke:black; stroke-width:1px;" />
<line x1="44.0" y1="295.5" x2="44.0" y2="320.0" style="stroke:black; stroke-width:1px;" />
<line x1="44.0" y1="327.5" x2="44.0" y2="352.0" style="stroke:black; stroke-width:1px;" />
<line x1="44.0" y1="359.5" x2="44.0" y2="384.0" style="stroke:black; stroke-width:1px;" />
<line x1="44.0" y1="391.5" x2="44.0" y2="416.0" style="stroke:black; stroke-width:1px;" />
<line x1="44.0" y1="423.5" x2="44.0" y2="448.0" style="stroke:black; stroke-width:1px;" />
<line x1="44.0" y1="455.5" x2="44.0" y2="480.0" style="stroke:black; stroke-width:1px;" />
<line x1="114.0" y1="199.5" x2="114.0" y2="224.0" style="stroke:black; stroke-width:1px;" />
<line x1="114.0" y1="231.5" x2="114.0" y2="256.0" style="stroke:black; stroke-width:1px;" />
<line x1="114.0" y1="199.5" x2="157.5" y2="224.0" style="stroke:black; stroke-width:1px;" />
<line x1="157.5" y1="231.5" x2="157.5" y2="256.0" style="stroke:black; stroke-width:1px;" />
<line x1="157.5" y1="263.5" x2="157.5" y2="288.0" style="stroke:black; stroke-width:1px;" />
<line x1="157.5" y1="295.5" x2="157.5" y2="320.0" style="stroke:black; stroke-width:1px;" />
<line x1="157.5" y1="327.5" x2="157.5" y2="352.0" style="stroke:black; stroke-width:1px;" />
<line x1="157.5" y1="359.5" x2="157.5" y2="384.0" style="stroke:black; stroke-width:1px;" />
<line x1="157.5" y1="391.5" x2="157.5" y2="416.0" style="stroke:black; stroke-width:1px;" />
<line x1="157.5" y1="423.5" x2="157.5" y2="448.0" style="stroke:black; stroke-width:1px;" />
<line x1="157.5" y1="455.5" x2="157.5" y2="480.0" style="stroke:black; stroke-width:1px;" />
<line x1="114.0" y1="199.5" x2="184.0" y2="224.0" style="stroke:black; stroke-width:1px;" />
<line x1="205.0" y1="167.5" x2="307.0" y2="192.0" style="stroke:black; stroke-width:1px;" />
<line x1="307.0" y1="199.5" x2="237.0" y2="224.0" style="stroke:black; stroke-width:1px;" />
<line x1="237.0" y1="231.5" x2="237.0" y2="256.0" style="stroke:black; stroke-width:1px;" />
<line x1="237.0" y1="263.5" x2="237.0" y2="288.0" style="stroke:black; stroke-width:1px;" />
<line x1="237.0" y1="295.5" x2="237.0" y2="320.0" style="stroke:black; stroke-width:1px;" />
<line x1="237.0" y1="327.5" x2="237.0" y2="352.0" style="stroke:black; stroke-width:1px;" />
<line x1="237.0" y1="359.5" x2="237.0" y2="384.0" style="stroke:black; stroke-width:1px;" />
<line x1="237.0" y1="391.5" x2="237.0" y2="416.0" style="stroke:black; stroke-width:1px;" />
<line x1="237.0" y1="423.5" x2="237.0" y2="448.0" style="stroke:black; stroke-width:1px;" />
<line x1="237.0" y1="455.5" x2="237.0" y2="480.0" style="stroke:black; stroke-width:1px;" />
<line x1="307.0" y1="199.5" x2="307.0" y2="224.0" style="stroke:black; stroke-width:1px;" />
<line x1="307.0" y1="231.5" x2="307.0" y2="256.0" style="stroke:black; stroke-width:1px;" />
<line x1="307.0" y1="199.5" x2="350.5" y2="224.0" style="stroke:black; stroke-width:1px;" />
<line x1="350.5" y1="231.5" x2="350.5" y2="256.0" style="stroke:black; stroke-width:1px;" />
<line x1="350.5" y1="263.5" x2="350.5" y2="288.0" style="stroke:black; stroke-width:1px;" />
<line x1="350.5" y1="295.5" x2="350.5" y2="320.0" style="stroke:black; stroke-width:1px;" />
<line x1="350.5" y1="327.5" x2="350.5" y2="352.0" style="stroke:black; stroke-width:1px;" />
<line x1="350.5" y1="359.5" x2="350.5" y2="384.0" style="stroke:black; stroke-width:1px;" />
<line x1="350.5" y1="391.5" x2="350.5" y2="416.0" style="stroke:black; stroke-width:1px;" />
<line x1="350.5" y1="423.5" x2="350.5" y2="448.0" style="stroke:black; stroke-width:1px;" />
<line x1="350.5" y1="455.5" x2="350.5" y2="480.0" style="stroke:black; stroke-width:1px;" />
<line x1="307.0" y1="199.5" x2="377.0" y2="224.0" style="stroke:black; stroke-width:1px;" />
<line x1="205.0" y1="167.5" x2="339.0" y2="192.0" style="stroke:black; stroke-width:1px;" />
<line x1="277.0" y1="39.5" x2="442.5" y2="64.0" style="stroke:black; stroke-width:1px;" />
<line x1="442.5" y1="71.5" x2="442.5" y2="96.0" style="stroke:black; stroke-width:1px;" />
<line x1="442.5" y1="103.5" x2="416.5" y2="128.0" style="stroke:black; stroke-width:1px;" />
<line x1="416.5" y1="135.5" x2="416.5" y2="160.0" style="stroke:black; stroke-width:1px;" />
<line x1="416.5" y1="167.5" x2="416.5" y2="192.0" style="stroke:black; stroke-width:1px;" />
<line x1="416.5" y1="199.5" x2="416.5" y2="224.0" style="stroke:black; stroke-width:1px;" />
<line x1="416.5" y1="231.5" x2="416.5" y2="256.0" style="stroke:black; stroke-width:1px;" />
<line x1="416.5" y1="263.5" x2="416.5" y2="288.0" style="stroke:black; stroke-width:1px;" />
<line x1="416.5" y1="295.5" x2="416.5" y2="320.0" style="stroke:black; stroke-width:1px;" />
<line x1="416.5" y1="327.5" x2="393.0" y2="352.0" style="stroke:black; stroke-width:1px;" />
<line x1="393.0" y1="359.5" x2="393.0" y2="384.0" style="stroke:black; stroke-width:1px;" />
<line x1="416.5" y1="327.5" x2="440.0" y2="352.0" style="stroke:black; stroke-width:1px;" />
<line x1="440.0" y1="359.5" x2="440.0" y2="384.0" style="stroke:black; stroke-width:1px;" />
<line x1="440.0" y1="391.5" x2="412.5" y2="416.0" style="stroke:black; stroke-width:1px;" />
<line x1="440.0" y1="391.5" x2="440.0" y2="416.0" style="stroke:black; stroke-width:1px;" />
<line x1="440.0" y1="423.5" x2="440.0" y2="448.0" style="stroke:black; stroke-width:1px;" />
<line x1="440.0" y1="455.5" x2="440.0" y2="480.0" style="stroke:black; stroke-width:1px;" />
<line x1="440.0" y1="487.5" x2="440.0" y2="512.0" style="stroke:black; stroke-width:1px;" />
<line x1="440.0" y1="519.5" x2="440.0" y2="544.0" style="stroke:black; stroke-width:1px;" />
<line x1="440.0" y1="551.5" x2="440.0" y2="576.0" style="stroke:black; stroke-width:1px;" />
<line x1="440.0" y1="583.5" x2="440.0" y2="608.0" style="stroke:black; stroke-width:1px;" />
<line x1="440.0" y1="615.5" x2="440.0" y2="640.0" style="stroke:black; stroke-width:1px;" />
<line x1="440.0" y1="391.5" x2="467.5" y2="416.0" style="stroke:black; stroke-width:1px;" />
<line x1="442.5" y1="103.5" x2="468.5" y2="128.0" style="stroke:black; stroke-width:1px;" />
<line x1="301.25" y1="7.5" x2="325.5" y2="32.0" style="stroke:black; stroke-width:1px;" />
<rect x="179.5" y="160.0" width="51.0" height="15.0" style="fill:orange; stroke:rgb(0,0,0);" rx="1"/>
<text x="181" y="169" style="font-family:sans-serif;font-size:10px;">
rev_block
</text>
<rect x="423.5" y="416.0" width="33.0" height="15.0" style="fill:orange; stroke:rgb(0,0,0);" rx="1"/>
<text x="425" y="425" style="font-family:sans-serif;font-size:10px;">
arglist
</text>
<rect x="99.5" y="64.0" width="24.0" height="15.0" style="fill:orange; stroke:rgb(0,0,0);" rx="1"/>
<text x="101" y="73" style="font-family:sans-serif;font-size:10px;">
stmt
</text>
<rect x="106.0" y="256.0" width="16.0" height="15.0" style="fill:orange; stroke:rgb(0,0,0);" rx="1"/>
<text x="108" y="265" style="font-family:sans-serif;font-size:10px;">
+=
</text>
<rect x="31.0" y="384.0" width="26.0" height="15.0" style="fill:orange; stroke:rgb(0,0,0);" rx="1"/>
<text x="33" y="393" style="font-family:sans-serif;font-size:10px;">
expr
</text>
<rect x="321.5" y="288.0" width="58.0" height="15.0" style="fill:orange; stroke:rgb(0,0,0);" rx="1"/>
<text x="323" y="297" style="font-family:sans-serif;font-size:10px;">
logical_test
</text>
<rect x="410.0" y="544.0" width="60.0" height="15.0" style="fill:orange; stroke:rgb(0,0,0);" rx="1"/>
<text x="412" y="553" style="font-family:sans-serif;font-size:10px;">
comparison
</text>
<rect x="127.5" y="320.0" width="60.0" height="15.0" style="fill:orange; stroke:rgb(0,0,0);" rx="1"/>
<text x="129" y="329" style="font-family:sans-serif;font-size:10px;">
comparison
</text>
<rect x="80.0" y="192.0" width="4.0" height="15.0" style="fill:orange; stroke:rgb(0,0,0);" rx="1"/>
<text x="82" y="201" style="font-family:sans-serif;font-size:10px;">

</text>
<rect x="95.0" y="224.0" width="38.0" height="15.0" style="fill:orange; stroke:rgb(0,0,0);" rx="1"/>
<text x="97" y="233" style="font-family:sans-serif;font-size:10px;">
rev_op
</text>
<rect x="207.0" y="352.0" width="60.0" height="15.0" style="fill:orange; stroke:rgb(0,0,0);" rx="1"/>
<text x="209" y="361" style="font-family:sans-serif;font-size:10px;">
comparison
</text>
<rect x="330.5" y="416.0" width="40.0" height="15.0" style="fill:orange; stroke:rgb(0,0,0);" rx="1"/>
<text x="332" y="425" style="font-family:sans-serif;font-size:10px;">
number
</text>
<rect x="26.5" y="256.0" width="35.0" height="15.0" style="fill:orange; stroke:rgb(0,0,0);" rx="1"/>
<text x="28" y="265" style="font-family:sans-serif;font-size:10px;">
testlist
</text>
<rect x="139.0" y="448.0" width="37.0" height="15.0" style="fill:orange; stroke:rgb(0,0,0);" rx="1"/>
<text x="141" y="457" style="font-family:sans-serif;font-size:10px;">
integer
</text>
<rect x="69.0" y="192.0" width="4.0" height="15.0" style="fill:orange; stroke:rgb(0,0,0);" rx="1"/>
<text x="71" y="201" style="font-family:sans-serif;font-size:10px;">

</text>
<rect x="412.5" y="96.0" width="60.0" height="15.0" style="fill:orange; stroke:rgb(0,0,0);" rx="1"/>
<text x="414" y="105" style="font-family:sans-serif;font-size:10px;">
simple_stmt
</text>
<rect x="379.5" y="352.0" width="27.0" height="15.0" style="fill:orange; stroke:rgb(0,0,0);" rx="1"/>
<text x="381" y="361" style="font-family:sans-serif;font-size:10px;">
atom
</text>
<rect x="418.0" y="640.0" width="44.0" height="15.0" style="fill:orange; stroke:rgb(0,0,0);" rx="1"/>
<text x="420" y="649" style="font-family:sans-serif;font-size:10px;">
"maybe"
</text>
<rect x="375.0" y="224.0" width="4.0" height="15.0" style="fill:orange; stroke:rgb(0,0,0);" rx="1"/>
<text x="377" y="233" style="font-family:sans-serif;font-size:10px;">

</text>
<rect x="224.0" y="384.0" width="26.0" height="15.0" style="fill:orange; stroke:rgb(0,0,0);" rx="1"/>
<text x="226" y="393" style="font-family:sans-serif;font-size:10px;">
expr
</text>
<rect x="380.5" y="384.0" width="25.0" height="15.0" style="fill:orange; stroke:rgb(0,0,0);" rx="1"/>
<text x="382" y="393" style="font-family:sans-serif;font-size:10px;">
print
</text>
<rect x="429.0" y="480.0" width="22.0" height="15.0" style="fill:orange; stroke:rgb(0,0,0);" rx="1"/>
<text x="431" y="489" style="font-family:sans-serif;font-size:10px;">
test
</text>
<rect x="424.5" y="352.0" width="31.0" height="15.0" style="fill:orange; stroke:rgb(0,0,0);" rx="1"/>
<text x="426" y="361" style="font-family:sans-serif;font-size:10px;">
trailer
</text>
<rect x="372.5" y="160.0" width="88.0" height="15.0" style="fill:orange; stroke:rgb(0,0,0);" rx="1"/>
<text x="374" y="169" style="font-family:sans-serif;font-size:10px;">
testlist_star_expr
</text>
<rect x="38.0" y="192.0" width="24.0" height="15.0" style="fill:orange; stroke:rgb(0,0,0);" rx="1"/>
<text x="40" y="201" style="font-family:sans-serif;font-size:10px;">
ciao
</text>
<rect x="226.0" y="288.0" width="22.0" height="15.0" style="fill:orange; stroke:rgb(0,0,0);" rx="1"/>
<text x="228" y="297" style="font-family:sans-serif;font-size:10px;">
test
</text>
<rect x="389.5" y="128.0" width="54.0" height="15.0" style="fill:orange; stroke:rgb(0,0,0);" rx="1"/>
<text x="391" y="137" style="font-family:sans-serif;font-size:10px;">
small_stmt
</text>
<rect x="337.5" y="352.0" width="26.0" height="15.0" style="fill:orange; stroke:rgb(0,0,0);" rx="1"/>
<text x="339" y="361" style="font-family:sans-serif;font-size:10px;">
expr
</text>
<rect x="386.5" y="288.0" width="60.0" height="15.0" style="fill:orange; stroke:rgb(0,0,0);" rx="1"/>
<text x="388" y="297" style="font-family:sans-serif;font-size:10px;">
comparison
</text>
<rect x="219.5" y="256.0" width="35.0" height="15.0" style="fill:orange; stroke:rgb(0,0,0);" rx="1"/>
<text x="221" y="265" style="font-family:sans-serif;font-size:10px;">
testlist
</text>
<rect x="450.5" y="128.0" width="36.0" height="15.0" style="fill:orange; stroke:rgb(0,0,0);" rx="1"/>
<text x="452" y="137" style="font-family:sans-serif;font-size:10px;">
&lt;EOF&gt;
</text>
<rect x="182.0" y="224.0" width="4.0" height="15.0" style="fill:orange; stroke:rgb(0,0,0);" rx="1"/>
<text x="184" y="233" style="font-family:sans-serif;font-size:10px;">

</text>
<rect x="412.5" y="384.0" width="55.0" height="15.0" style="fill:orange; stroke:rgb(0,0,0);" rx="1"/>
<text x="414" y="393" style="font-family:sans-serif;font-size:10px;">
arguments
</text>
<rect x="339.5" y="256.0" width="22.0" height="15.0" style="fill:orange; stroke:rgb(0,0,0);" rx="1"/>
<text x="341" y="265" style="font-family:sans-serif;font-size:10px;">
test
</text>
<rect x="387.5" y="256.0" width="58.0" height="15.0" style="fill:orange; stroke:rgb(0,0,0);" rx="1"/>
<text x="389" y="265" style="font-family:sans-serif;font-size:10px;">
logical_test
</text>
<rect x="405.5" y="224.0" width="22.0" height="15.0" style="fill:orange; stroke:rgb(0,0,0);" rx="1"/>
<text x="407" y="233" style="font-family:sans-serif;font-size:10px;">
test
</text>
<rect x="222.0" y="448.0" width="30.0" height="15.0" style="fill:orange; stroke:rgb(0,0,0);" rx="1"/>
<text x="224" y="457" style="font-family:sans-serif;font-size:10px;">
name
</text>
<rect x="71.5" y="96.0" width="80.0" height="15.0" style="fill:orange; stroke:rgb(0,0,0);" rx="1"/>
<text x="73" y="105" style="font-family:sans-serif;font-size:10px;">
compound_stmt
</text>
<rect x="208.0" y="320.0" width="58.0" height="15.0" style="fill:orange; stroke:rgb(0,0,0);" rx="1"/>
<text x="210" y="329" style="font-family:sans-serif;font-size:10px;">
logical_test
</text>
<rect x="140.0" y="224.0" width="35.0" height="15.0" style="fill:orange; stroke:rgb(0,0,0);" rx="1"/>
<text x="142" y="233" style="font-family:sans-serif;font-size:10px;">
testlist
</text>
<rect x="128.5" y="288.0" width="58.0" height="15.0" style="fill:orange; stroke:rgb(0,0,0);" rx="1"/>
<text x="130" y="297" style="font-family:sans-serif;font-size:10px;">
logical_test
</text>
<rect x="289.75" y="0.0" width="23.0" height="15.0" style="fill:orange; stroke:rgb(0,0,0);" rx="1"/>
<text x="291" y="9" style="font-family:sans-serif;font-size:10px;">
root
</text>
<rect x="146.5" y="256.0" width="22.0" height="15.0" style="fill:orange; stroke:rgb(0,0,0);" rx="1"/>
<text x="148" y="265" style="font-family:sans-serif;font-size:10px;">
test
</text>
<rect x="144.5" y="352.0" width="26.0" height="15.0" style="fill:orange; stroke:rgb(0,0,0);" rx="1"/>
<text x="146" y="361" style="font-family:sans-serif;font-size:10px;">
expr
</text>
<rect x="288.0" y="224.0" width="38.0" height="15.0" style="fill:orange; stroke:rgb(0,0,0);" rx="1"/>
<text x="290" y="233" style="font-family:sans-serif;font-size:10px;">
rev_op
</text>
<rect x="399.0" y="192.0" width="35.0" height="15.0" style="fill:orange; stroke:rgb(0,0,0);" rx="1"/>
<text x="401" y="201" style="font-family:sans-serif;font-size:10px;">
testlist
</text>
<rect x="403.5" y="320.0" width="26.0" height="15.0" style="fill:orange; stroke:rgb(0,0,0);" rx="1"/>
<text x="405" y="329" style="font-family:sans-serif;font-size:10px;">
expr
</text>
<rect x="411.0" y="512.0" width="58.0" height="15.0" style="fill:orange; stroke:rgb(0,0,0);" rx="1"/>
<text x="413" y="521" style="font-family:sans-serif;font-size:10px;">
logical_test
</text>
<rect x="87.875" y="160.0" width="8.0" height="15.0" style="fill:orange; stroke:rgb(0,0,0);" rx="1"/>
<text x="89" y="169" style="font-family:sans-serif;font-size:10px;">
(
</text>
<rect x="253.5" y="32.0" width="47.0" height="15.0" style="fill:orange; stroke:rgb(0,0,0);" rx="1"/>
<text x="255" y="41" style="font-family:sans-serif;font-size:10px;">
file_input
</text>
<rect x="307.5" y="32.0" width="36.0" height="15.0" style="fill:orange; stroke:rgb(0,0,0);" rx="1"/>
<text x="309" y="41" style="font-family:sans-serif;font-size:10px;">
&lt;EOF&gt;
</text>
<rect x="223.5" y="416.0" width="27.0" height="15.0" style="fill:orange; stroke:rgb(0,0,0);" rx="1"/>
<text x="225" y="425" style="font-family:sans-serif;font-size:10px;">
atom
</text>
<rect x="14.0" y="352.0" width="60.0" height="15.0" style="fill:orange; stroke:rgb(0,0,0);" rx="1"/>
<text x="16" y="361" style="font-family:sans-serif;font-size:10px;">
comparison
</text>
<rect x="337.0" y="384.0" width="27.0" height="15.0" style="fill:orange; stroke:rgb(0,0,0);" rx="1"/>
<text x="339" y="393" style="font-family:sans-serif;font-size:10px;">
atom
</text>
<rect x="118.75" y="160.0" width="8.0" height="15.0" style="fill:orange; stroke:rgb(0,0,0);" rx="1"/>
<text x="120" y="169" style="font-family:sans-serif;font-size:10px;">
)
</text>
<rect x="29.0" y="448.0" width="30.0" height="15.0" style="fill:orange; stroke:rgb(0,0,0);" rx="1"/>
<text x="31" y="457" style="font-family:sans-serif;font-size:10px;">
name
</text>
<rect x="137.5" y="416.0" width="40.0" height="15.0" style="fill:orange; stroke:rgb(0,0,0);" rx="1"/>
<text x="139" y="425" style="font-family:sans-serif;font-size:10px;">
number
</text>
<rect x="300.0" y="256.0" width="14.0" height="15.0" style="fill:orange; stroke:rgb(0,0,0);" rx="1"/>
<text x="302" y="265" style="font-family:sans-serif;font-size:10px;">
-=
</text>
<rect x="193.0" y="224.0" width="88.0" height="15.0" style="fill:orange; stroke:rgb(0,0,0);" rx="1"/>
<text x="195" y="233" style="font-family:sans-serif;font-size:10px;">
testlist_star_expr
</text>
<rect x="39.0" y="480.0" width="10.0" height="15.0" style="fill:orange; stroke:rgb(0,0,0);" rx="1"/>
<text x="41" y="489" style="font-family:sans-serif;font-size:10px;">
x
</text>
<rect x="284.0" y="192.0" width="46.0" height="15.0" style="fill:orange; stroke:rgb(0,0,0);" rx="1"/>
<text x="286" y="201" style="font-family:sans-serif;font-size:10px;">
rev_stmt
</text>
<rect x="91.0" y="192.0" width="46.0" height="15.0" style="fill:orange; stroke:rgb(0,0,0);" rx="1"/>
<text x="93" y="201" style="font-family:sans-serif;font-size:10px;">
rev_stmt
</text>
<rect x="408.5" y="416.0" width="8.0" height="15.0" style="fill:orange; stroke:rgb(0,0,0);" rx="1"/>
<text x="410" y="425" style="font-family:sans-serif;font-size:10px;">
(
</text>
<rect x="332.0" y="448.0" width="37.0" height="15.0" style="fill:orange; stroke:rgb(0,0,0);" rx="1"/>
<text x="334" y="457" style="font-family:sans-serif;font-size:10px;">
integer
</text>
<rect x="342.5" y="480.0" width="16.0" height="15.0" style="fill:orange; stroke:rgb(0,0,0);" rx="1"/>
<text x="344" y="489" style="font-family:sans-serif;font-size:10px;">
10
</text>
<rect x="30.5" y="416.0" width="27.0" height="15.0" style="fill:orange; stroke:rgb(0,0,0);" rx="1"/>
<text x="32" y="425" style="font-family:sans-serif;font-size:10px;">
atom
</text>
<rect x="144.0" y="384.0" width="27.0" height="15.0" style="fill:orange; stroke:rgb(0,0,0);" rx="1"/>
<text x="146" y="393" style="font-family:sans-serif;font-size:10px;">
atom
</text>
<rect x="149.625" y="160.0" width="7.0" height="15.0" style="fill:orange; stroke:rgb(0,0,0);" rx="1"/>
<text x="151" y="169" style="font-family:sans-serif;font-size:10px;">
:
</text>
<rect x="152.5" y="480.0" width="10.0" height="15.0" style="fill:orange; stroke:rgb(0,0,0);" rx="1"/>
<text x="154" y="489" style="font-family:sans-serif;font-size:10px;">
4
</text>
<rect x="232.0" y="480.0" width="10.0" height="15.0" style="fill:orange; stroke:rgb(0,0,0);" rx="1"/>
<text x="234" y="489" style="font-family:sans-serif;font-size:10px;">
y
</text>
<rect x="320.5" y="320.0" width="60.0" height="15.0" style="fill:orange; stroke:rgb(0,0,0);" rx="1"/>
<text x="322" y="329" style="font-family:sans-serif;font-size:10px;">
comparison
</text>
<rect x="415.5" y="448.0" width="49.0" height="15.0" style="fill:orange; stroke:rgb(0,0,0);" rx="1"/>
<text x="417" y="457" style="font-family:sans-serif;font-size:10px;">
argument
</text>
<rect x="337.0" y="192.0" width="4.0" height="15.0" style="fill:orange; stroke:rgb(0,0,0);" rx="1"/>
<text x="339" y="201" style="font-family:sans-serif;font-size:10px;">

</text>
<rect x="463.5" y="416.0" width="8.0" height="15.0" style="fill:orange; stroke:rgb(0,0,0);" rx="1"/>
<text x="465" y="425" style="font-family:sans-serif;font-size:10px;">
)
</text>
<rect x="0.0" y="224.0" width="88.0" height="15.0" style="fill:orange; stroke:rgb(0,0,0);" rx="1"/>
<text x="2" y="233" style="font-family:sans-serif;font-size:10px;">
testlist_star_expr
</text>
<rect x="33.0" y="288.0" width="22.0" height="15.0" style="fill:orange; stroke:rgb(0,0,0);" rx="1"/>
<text x="35" y="297" style="font-family:sans-serif;font-size:10px;">
test
</text>
<rect x="333.0" y="224.0" width="35.0" height="15.0" style="fill:orange; stroke:rgb(0,0,0);" rx="1"/>
<text x="335" y="233" style="font-family:sans-serif;font-size:10px;">
testlist
</text>
<rect x="15.0" y="320.0" width="58.0" height="15.0" style="fill:orange; stroke:rgb(0,0,0);" rx="1"/>
<text x="17" y="329" style="font-family:sans-serif;font-size:10px;">
logical_test
</text>
<rect x="426.5" y="608.0" width="27.0" height="15.0" style="fill:orange; stroke:rgb(0,0,0);" rx="1"/>
<text x="428" y="617" style="font-family:sans-serif;font-size:10px;">
atom
</text>
<rect x="90.5" y="128.0" width="42.0" height="15.0" style="fill:orange; stroke:rgb(0,0,0);" rx="1"/>
<text x="92" y="137" style="font-family:sans-serif;font-size:10px;">
funcdef
</text>
<rect x="8.0" y="160.0" width="20.0" height="15.0" style="fill:orange; stroke:rgb(0,0,0);" rx="1"/>
<text x="10" y="169" style="font-family:sans-serif;font-size:10px;">
rev
</text>
<rect x="35.0" y="160.0" width="30.0" height="15.0" style="fill:orange; stroke:rgb(0,0,0);" rx="1"/>
<text x="37" y="169" style="font-family:sans-serif;font-size:10px;">
name
</text>
<rect x="430.5" y="64.0" width="24.0" height="15.0" style="fill:orange; stroke:rgb(0,0,0);" rx="1"/>
<text x="432" y="73" style="font-family:sans-serif;font-size:10px;">
stmt
</text>
<rect x="427.0" y="576.0" width="26.0" height="15.0" style="fill:orange; stroke:rgb(0,0,0);" rx="1"/>
<text x="429" y="585" style="font-family:sans-serif;font-size:10px;">
expr
</text>
</svg>